<svg width="2848" height="625" viewBox="0 0 2848 625" fill="none" xmlns="http://www.w3.org/2000/svg">
<path fill-rule="evenodd" clip-rule="evenodd" d="M265.116 625V529.573C301.212 521.777 334.005 505.03 361.085 481.756V624.814C510.6 601.341 625 471.254 625 314.295C625 140.715 485.089 0 312.5 0C139.911 0 0 140.715 0 314.295C0 471.674 115.013 602.036 265.116 625ZM436.659 314.898C436.659 383.53 381.339 439.168 313.099 439.168C244.858 439.168 189.538 383.53 189.538 314.898C189.538 246.265 244.858 190.628 313.099 190.628C381.339 190.628 436.659 246.265 436.659 314.898Z" fill="url(#paint0_linear_2640_35705)"/>
<path opacity="0.8" fill-rule="evenodd" clip-rule="evenodd" d="M218.93 531.429C339.842 531.429 437.86 433.411 437.86 312.499C437.86 191.588 339.842 93.5692 218.93 93.5692C98.0183 93.5692 0 191.588 0 312.499C0 433.411 98.0183 531.429 218.93 531.429ZM313.099 436.66C381.339 436.66 436.659 381.34 436.659 313.099C436.659 244.859 381.339 189.539 313.099 189.539C244.858 189.539 189.538 244.859 189.538 313.099C189.538 381.34 244.858 436.66 313.099 436.66Z" fill="url(#paint1_linear_2640_35705)"/>
<path opacity="0.6" fill-rule="evenodd" clip-rule="evenodd" d="M253.718 496.64C355.416 496.64 437.859 414.197 437.859 312.499C437.859 210.801 355.416 128.358 253.718 128.358C152.019 128.358 69.5767 210.801 69.5767 312.499C69.5767 414.197 152.019 496.64 253.718 496.64ZM313.099 436.659C381.339 436.659 436.659 381.34 436.659 313.099C436.659 244.858 381.339 189.539 313.099 189.539C244.858 189.539 189.538 244.858 189.538 313.099C189.538 381.34 244.858 436.659 313.099 436.659Z" fill="url(#paint2_linear_2640_35705)"/>
<path fill-rule="evenodd" clip-rule="evenodd" d="M287.907 463.051C370.723 463.051 437.859 395.915 437.859 313.099C437.859 230.283 370.723 163.147 287.907 163.147C205.09 163.147 137.955 230.283 137.955 313.099C137.955 395.915 205.09 463.051 287.907 463.051ZM313.099 436.659C381.339 436.659 436.659 381.339 436.659 313.099C436.659 244.858 381.339 189.538 313.099 189.538C244.858 189.538 189.538 244.858 189.538 313.099C189.538 381.339 244.858 436.659 313.099 436.659Z" fill="url(#paint3_linear_2640_35705)"/>
<path fill-rule="evenodd" clip-rule="evenodd" d="M774.62 392.519V618.378H870.935V392.85C855.728 396.651 839.815 398.67 823.43 398.67C806.576 398.67 790.221 396.534 774.62 392.519ZM925.151 370.11V618.378H945.016H973.911H1021.47V426.953C1021.47 419.328 1022.87 412.305 1025.68 405.884C1028.89 399.463 1033.1 393.844 1038.32 389.029C1043.54 383.812 1049.76 379.999 1056.98 377.591C1064.21 374.782 1072.03 373.377 1080.46 373.377C1091.29 372.976 1100.32 374.983 1107.55 379.397C1115.17 383.41 1120.79 389.631 1124.4 398.058C1128.01 406.486 1129.82 417.12 1129.82 429.962V618.378H1226.74V422.137C1226.74 394.045 1222.52 370.368 1214.1 351.105C1205.67 331.44 1193.23 316.792 1176.77 307.161C1160.32 297.128 1140.05 292.112 1115.98 292.112C1098.32 292.112 1081.46 295.724 1065.41 302.947C1049.36 310.171 1035.51 319.802 1023.87 331.842C1021.97 333.811 1020.17 335.821 1018.46 337.871L1016.65 298.733H993.869C977.462 328.013 953.728 352.633 925.151 370.11ZM774.62 341.528V256.025H870.935V341.982C856.038 347.088 840.058 349.86 823.43 349.86C806.315 349.86 789.887 346.924 774.62 341.528ZM934.604 298.733C931.611 302.222 928.456 305.568 925.151 308.76V298.733H934.604ZM2582.51 603.931C2604.18 617.977 2628.86 625 2656.55 625C2671.4 625 2685.45 622.793 2698.69 618.378C2712.34 614.365 2724.37 608.947 2734.81 602.125C2743 596.454 2749.96 590.165 2755.67 583.257L2758.29 618.378H2847.98V154.62H2751.06V330.047C2746.42 325.285 2741.2 320.867 2735.41 316.792C2724.58 309.167 2712.54 303.148 2699.29 298.733C2686.05 294.319 2672.2 292.112 2657.76 292.112C2629.67 292.112 2604.78 299.335 2583.11 313.783C2561.44 328.23 2544.39 348.095 2531.95 373.377C2519.5 398.259 2513.28 426.752 2513.28 458.857C2513.28 490.962 2519.5 519.656 2531.95 544.938C2544.39 569.82 2561.24 589.484 2582.51 603.931ZM2719.76 534.103C2708.92 541.326 2696.08 544.938 2681.23 544.938C2666.39 544.938 2653.54 541.326 2642.71 534.103C2632.27 526.879 2624.05 516.846 2618.03 504.004C2612.01 491.162 2609 476.113 2609 458.857C2609 441.199 2612.01 425.949 2618.03 413.107C2624.05 400.265 2632.27 390.233 2642.71 383.009C2653.54 375.785 2666.39 372.174 2681.23 372.174C2696.08 372.174 2708.92 375.785 2719.76 383.009C2730.59 390.233 2738.82 400.265 2744.44 413.107C2750.46 425.949 2753.47 441.199 2753.47 458.857C2753.47 476.113 2750.46 491.162 2744.44 504.004C2738.82 516.846 2730.59 526.879 2719.76 534.103ZM1309.67 383.009V618.378H1405.98V383.009H1467.99V298.733H1405.98V218.07H1309.67V298.733H1253.08V383.009H1309.67ZM1607.91 625C1584.23 625 1563.96 619.984 1547.11 609.951C1530.65 599.517 1517.81 584.668 1508.58 565.405C1499.75 546.142 1495.34 523.067 1495.34 496.179V298.733H1592.25V482.936C1592.25 495.778 1594.26 506.814 1598.27 516.044C1602.29 525.274 1608.31 532.498 1616.33 537.715C1624.36 542.53 1633.99 544.938 1645.23 544.938C1653.65 544.938 1661.28 543.534 1668.1 540.725C1675.33 537.915 1681.35 534.103 1686.16 529.287C1691.38 524.07 1695.39 518.251 1698.2 511.83C1701.01 505.008 1702.41 497.584 1702.41 489.557V298.733H1799.33V618.378H1708.43L1705.8 577.438C1703.46 580.544 1700.92 583.556 1698.2 586.474C1686.96 598.112 1673.52 607.543 1657.87 614.767C1642.22 621.589 1625.56 625 1607.91 625ZM1848.89 298.733V618.378H1868.76H1897.65H1945.21V426.953C1945.21 419.328 1946.61 412.305 1949.42 405.884C1952.63 399.463 1956.84 393.844 1962.06 389.029C1967.28 383.812 1973.5 379.999 1980.72 377.591C1987.95 374.782 1995.77 373.377 2004.2 373.377C2015.03 372.976 2024.06 374.983 2031.29 379.397C2038.91 383.41 2044.53 389.631 2048.14 398.058C2051.75 406.486 2053.56 417.12 2053.56 429.962V618.378H2150.48V422.137C2150.48 394.045 2146.26 370.368 2137.84 351.105C2129.41 331.44 2116.97 316.792 2100.51 307.161C2084.06 297.128 2063.79 292.112 2039.71 292.112C2022.06 292.112 2005.2 295.724 1989.15 302.947C1973.1 310.171 1959.25 319.802 1947.61 331.842C1945.71 333.811 1943.91 335.821 1942.2 337.871L1940.39 298.733H1848.89ZM2353.12 624.398C2317.8 624.398 2287.1 617.375 2261.02 603.329C2234.93 588.882 2214.66 569.418 2200.22 544.938C2185.77 520.057 2178.55 491.764 2178.55 460.061C2178.55 435.581 2182.56 413.107 2190.59 392.64C2198.61 372.174 2209.85 354.516 2224.3 339.667C2238.74 324.417 2255.8 312.779 2275.46 304.753C2295.53 296.326 2317.4 292.112 2341.08 292.112C2363.55 292.112 2384.02 296.125 2402.48 304.151C2421.34 312.177 2437.59 323.414 2451.24 337.861C2464.88 352.309 2475.32 369.364 2482.54 389.029C2489.76 408.693 2492.97 430.163 2492.17 453.439L2491.57 479.324H2271.95C2273.75 486.421 2276.32 493.042 2279.68 499.189C2287.3 512.031 2298.14 522.064 2312.18 529.287C2326.63 536.511 2343.69 540.123 2363.35 540.123C2377 540.123 2389.03 538.116 2399.47 534.103C2410.3 530.09 2421.94 523.267 2434.38 513.636L2479.53 577.445C2467.09 588.28 2453.85 597.109 2439.8 603.931C2425.75 610.753 2411.31 615.77 2396.46 618.98C2382.01 622.592 2367.56 624.398 2353.12 624.398ZM2277.27 409.496C2274.98 414.245 2273.15 419.462 2271.79 425.147H2403.08V424.545C2402.28 414.512 2399.07 405.683 2393.45 398.058C2388.23 390.032 2381.21 383.812 2372.38 379.397C2363.55 374.983 2353.52 372.775 2342.28 372.775C2326.63 372.775 2313.19 375.986 2301.95 382.407C2291.11 388.427 2282.89 397.456 2277.27 409.496Z" fill="url(#paint4_linear_2640_35705)"/>
<path fill-rule="evenodd" clip-rule="evenodd" d="M823.43 349.86C904.301 349.86 969.86 284.301 969.86 203.43C969.86 122.559 904.301 57 823.43 57C742.559 57 677 122.559 677 203.43C677 284.301 742.559 349.86 823.43 349.86ZM823.43 252.24C850.387 252.24 872.24 230.387 872.24 203.43C872.24 176.473 850.387 154.62 823.43 154.62C796.473 154.62 774.62 176.473 774.62 203.43C774.62 230.387 796.473 252.24 823.43 252.24Z" fill="#EE017E"/>
<mask id="path-7-inside-1_2640_35705" fill="white">
<path fill-rule="evenodd" clip-rule="evenodd" d="M872.24 341.528C857.002 346.914 840.606 349.849 823.525 349.86H823.334C806.254 349.849 789.858 346.914 774.62 341.528V290.131C778.63 290.493 782.701 290.678 786.822 290.678C820.626 290.678 851.05 278.218 872.24 258.341H872.24V341.528Z"/>
</mask>
<path fill-rule="evenodd" clip-rule="evenodd" d="M872.24 341.528C857.002 346.914 840.606 349.849 823.525 349.86H823.334C806.254 349.849 789.858 346.914 774.62 341.528V290.131C778.63 290.493 782.701 290.678 786.822 290.678C820.626 290.678 851.05 278.218 872.24 258.341H872.24V341.528Z" fill="url(#paint5_linear_2640_35705)"/>
<path d="M823.525 349.86V350.36H823.526L823.525 349.86ZM872.24 341.528L872.407 341.999L872.74 341.881V341.528H872.24ZM823.334 349.86L823.334 350.36H823.334V349.86ZM774.62 341.528H774.12V341.881L774.453 341.999L774.62 341.528ZM774.62 290.131L774.665 289.633L774.12 289.584V290.131H774.62ZM872.24 258.341V257.841H872.042L871.898 257.976L872.24 258.341ZM872.24 258.341H872.74V257.841H872.24V258.341ZM823.526 350.36C840.663 350.349 857.116 347.404 872.407 341.999L872.073 341.056C856.888 346.424 840.548 349.349 823.525 349.36L823.526 350.36ZM823.334 350.36H823.525V349.36H823.334V350.36ZM774.453 341.999C789.744 347.404 806.197 350.349 823.334 350.36L823.335 349.36C806.312 349.349 789.972 346.424 774.787 341.056L774.453 341.999ZM774.12 290.131V341.528H775.12V290.131H774.12ZM786.822 290.178C782.716 290.178 778.66 289.993 774.665 289.633L774.575 290.629C778.6 290.992 782.686 291.178 786.822 291.178V290.178ZM871.898 257.976C850.805 277.763 820.504 290.178 786.822 290.178V291.178C820.747 291.178 851.295 278.674 872.582 258.706L871.898 257.976ZM872.24 257.841H872.24V258.841H872.24V257.841ZM872.74 341.528V258.341H871.74V341.528H872.74Z" fill="#EE017E" fill-opacity="0.2" mask="url(#path-7-inside-1_2640_35705)"/>
<defs>
<linearGradient id="paint0_linear_2640_35705" x1="312.5" y1="0" x2="313.107" y2="638.242" gradientUnits="userSpaceOnUse">
<stop stop-color="#08C5EE"/>
<stop offset="0.755208" stop-color="#B84EAA"/>
<stop offset="0.921875" stop-color="#EE017E"/>
</linearGradient>
<linearGradient id="paint1_linear_2640_35705" x1="218.93" y1="93.5692" x2="218.93" y2="531.429" gradientUnits="userSpaceOnUse">
<stop offset="0.0104167" stop-color="#3368B8"/>
<stop offset="0.65625" stop-color="#AF4FA7"/>
<stop offset="1" stop-color="#FF3FBF"/>
</linearGradient>
<linearGradient id="paint2_linear_2640_35705" x1="253.718" y1="128.358" x2="253.718" y2="496.64" gradientUnits="userSpaceOnUse">
<stop offset="0.0104167" stop-color="#3368B8"/>
<stop offset="0.65625" stop-color="#AF4FA7"/>
<stop offset="1" stop-color="#FF3FBF"/>
</linearGradient>
<linearGradient id="paint3_linear_2640_35705" x1="287.907" y1="163.147" x2="287.907" y2="463.051" gradientUnits="userSpaceOnUse">
<stop offset="0.0104167" stop-color="#3368B8"/>
<stop offset="0.65625" stop-color="#AF4FA7"/>
<stop offset="1" stop-color="#FF3FBF"/>
</linearGradient>
<linearGradient id="paint4_linear_2640_35705" x1="3002.32" y1="566.202" x2="-449.692" y2="536.612" gradientUnits="userSpaceOnUse">
<stop offset="0.171875" stop-color="#00A5D9"/>
<stop offset="0.597586" stop-color="#ED007D"/>
</linearGradient>
<linearGradient id="paint5_linear_2640_35705" x1="823.43" y1="71.3117" x2="823.43" y2="397.728" gradientUnits="userSpaceOnUse">
<stop offset="0.0443292" stop-color="#1A003A" stop-opacity="0.2"/>
<stop offset="1" stop-color="#EE017E"/>
</linearGradient>
</defs>
</svg>
